<?xml version="1.0" standalone="no"?><!DOCTYPE svg PUBLIC "-//W3C//DTD SVG 1.1//EN" "http://www.w3.org/Graphics/SVG/1.1/DTD/svg11.dtd"><svg class="icon" width="200px" height="200.00px" viewBox="0 0 1024 1024" version="1.1" xmlns="http://www.w3.org/2000/svg"><path d="M725.333333 648.533333h-290.133333c-17.066667 0-34.133333-12.8-34.133333-29.866666l-42.666667-226.133334c-4.266667-25.6 8.533333-46.933333 34.133333-46.933333H768c21.333333 0 34.133333 21.333333 29.866667 51.2l-38.4 221.866667c0 17.066667-17.066667 29.866667-34.133334 29.866666z" fill="#2c2c2c" /><path d="M806.4 733.866667H362.666667c-29.866667 0-51.2-21.333333-59.733334-46.933334L230.4 332.8l-38.4-153.6s-4.266667 0-4.266667-4.266667c-4.266667 0-8.533333-4.266667-29.866666-4.266666-12.8 0-29.866667-4.266667-42.666667-4.266667-12.8 4.266667-29.866667-12.8-29.866667-25.6 0-17.066667 12.8-29.866667 29.866667-29.866667 17.066667 0 34.133333 0 51.2 4.266667 21.333333 0 34.133333 4.266667 46.933333 12.8 8.533333 4.266667 17.066667 8.533333 21.333334 17.066667 4.266667 4.266667 4.266667 8.533333 8.533333 12.8l42.666667 162.133333 72.533333 354.133333 448 4.266667 72.533333-354.133333v-12.8H337.066667c-17.066667 0-29.866667-12.8-29.866667-29.866667s12.8-29.866667 29.866667-29.866667h546.133333c17.066667 0 29.866667 8.533333 42.666667 21.333334 12.8 12.8 17.066667 38.4 12.8 59.733333L866.133333 682.666667c-8.533333 29.866667-34.133333 51.2-59.733333 51.2zM362.666667 913.066667c-42.666667 0-72.533333-34.133333-72.533334-72.533334 0-42.666667 34.133333-72.533333 72.533334-72.533333 42.666667 0 72.533333 34.133333 72.533333 72.533333 0 38.4-34.133333 72.533333-72.533333 72.533334z m0-93.866667c-8.533333 0-17.066667 8.533333-17.066667 17.066667s8.533333 17.066667 17.066667 17.066666 17.066667-8.533333 17.066666-17.066666-8.533333-17.066667-17.066666-17.066667zM789.333333 913.066667c-42.666667 0-72.533333-34.133333-72.533333-72.533334 0-42.666667 34.133333-72.533333 72.533333-72.533333 42.666667 0 72.533333 34.133333 72.533334 72.533333 4.266667 42.666667-29.866667 72.533333-72.533334 72.533334z m0-89.6c-8.533333 0-17.066667 8.533333-17.066666 17.066666s8.533333 17.066667 17.066666 17.066667 17.066667-8.533333 17.066667-17.066667-8.533333-17.066667-17.066667-17.066666z" fill="#2c2c2c" /><path d="M729.6 512h-281.6c-17.066667 0-25.6-12.8-25.6-25.6v-4.266667c0-17.066667 12.8-25.6 25.6-25.6h281.6c17.066667 0 25.6 12.8 25.6 25.6v4.266667c0 12.8-12.8 25.6-25.6 25.6z" fill="#2c2c2c" /></svg>